Normalized EMG Linear Envelopes
nRows=38
nColumns=17

endheader
time	        VM	        VL	        RF	       GRA	        TA	   ADDLONG	   SEMIMEM	      BFLH	        GM	        GL	       TFL	   GLUTMAX	   GLUTMED	      PIRI	    OBTINT	        QF	
1.6975	  0.071708	  0.068049	  0.308407	  0.176890	  0.492968	  0.045822	  0.043139	  0.033968	  0.030559	  0.027905	  0.108674	  0.028911	  0.120836	  0.510033	  0.763287	  0.210324	
1.698	  0.071964	  0.068572	  0.310871	  0.173844	  0.491660	  0.045148	  0.043966	  0.034008	  0.030482	  0.027805	  0.106528	  0.028762	  0.121553	  0.511273	  0.767844	  0.211057	
1.6985	  0.072239	  0.069095	  0.313311	  0.170830	  0.490331	  0.044484	  0.044841	  0.034076	  0.030408	  0.027703	  0.104403	  0.028617	  0.122292	  0.512433	  0.772342	  0.211792	
1.699	  0.072532	  0.069617	  0.315726	  0.167849	  0.488983	  0.043828	  0.045765	  0.034173	  0.030339	  0.027600	  0.102298	  0.028477	  0.123053	  0.513512	  0.776777	  0.212530	
1.6995	  0.072845	  0.070139	  0.318114	  0.164903	  0.487616	  0.043181	  0.046738	  0.034298	  0.030273	  0.027496	  0.100214	  0.028340	  0.123834	  0.514509	  0.781149	  0.213271	
1.7	  0.073178	  0.070659	  0.320474	  0.161994	  0.486231	  0.042542	  0.047761	  0.034453	  0.030212	  0.027391	  0.098151	  0.028209	  0.124638	  0.515423	  0.785456	  0.214013	
1.7005	  0.073530	  0.071178	  0.322806	  0.159121	  0.484829	  0.041913	  0.048836	  0.034638	  0.030156	  0.027286	  0.096110	  0.028082	  0.125462	  0.516255	  0.789696	  0.214759	
1.701	  0.073904	  0.071695	  0.325107	  0.156287	  0.483409	  0.041294	  0.049961	  0.034852	  0.030104	  0.027180	  0.094091	  0.027961	  0.126307	  0.517003	  0.793867	  0.215507	
1.7015	  0.074298	  0.072210	  0.327377	  0.153492	  0.481973	  0.040683	  0.051139	  0.035098	  0.030059	  0.027074	  0.092094	  0.027845	  0.127174	  0.517667	  0.797968	  0.216258	
1.702	  0.074714	  0.072722	  0.329613	  0.150738	  0.480520	  0.040083	  0.052370	  0.035376	  0.030018	  0.026967	  0.090119	  0.027734	  0.128061	  0.518249	  0.801997	  0.217011	
1.7025	  0.075152	  0.073232	  0.331816	  0.148025	  0.479052	  0.039491	  0.053654	  0.035685	  0.029984	  0.026860	  0.088168	  0.027629	  0.128968	  0.518748	  0.805952	  0.217768	
1.703	  0.075613	  0.073738	  0.333983	  0.145354	  0.477569	  0.038910	  0.054992	  0.036026	  0.029957	  0.026753	  0.086239	  0.027530	  0.129896	  0.519165	  0.809833	  0.218529	
1.7035	  0.076095	  0.074241	  0.336113	  0.142726	  0.476070	  0.038339	  0.056385	  0.036401	  0.029936	  0.026645	  0.084334	  0.027437	  0.130843	  0.519502	  0.813636	  0.219293	
1.704	  0.076601	  0.074739	  0.338204	  0.140143	  0.474556	  0.037777	  0.057833	  0.036808	  0.029922	  0.026538	  0.082453	  0.027351	  0.131811	  0.519760	  0.817361	  0.220061	
1.7045	  0.077130	  0.075233	  0.340256	  0.137604	  0.473027	  0.037226	  0.059337	  0.037250	  0.029915	  0.026431	  0.080596	  0.027271	  0.132798	  0.519940	  0.821004	  0.220834	
1.705	  0.077683	  0.075722	  0.342265	  0.135110	  0.471483	  0.036685	  0.060898	  0.037725	  0.029916	  0.026325	  0.078762	  0.027198	  0.133804	  0.520044	  0.824564	  0.221612	
1.7055	  0.078259	  0.076206	  0.344231	  0.132664	  0.469925	  0.036154	  0.062515	  0.038235	  0.029925	  0.026218	  0.076953	  0.027131	  0.134830	  0.520075	  0.828037	  0.222395	
1.706	  0.078859	  0.076684	  0.346153	  0.130264	  0.468351	  0.035634	  0.064190	  0.038781	  0.029942	  0.026112	  0.075168	  0.027072	  0.135874	  0.520033	  0.831421	  0.223185	
1.7065	  0.079484	  0.077156	  0.348028	  0.127911	  0.466763	  0.035124	  0.065923	  0.039361	  0.029968	  0.026007	  0.073407	  0.027020	  0.136936	  0.519922	  0.834713	  0.223980	
1.707	  0.080133	  0.077621	  0.349855	  0.125607	  0.465159	  0.034625	  0.067715	  0.039978	  0.030003	  0.025903	  0.071671	  0.026975	  0.138016	  0.519743	  0.837911	  0.224783	
1.7075	  0.080807	  0.078080	  0.351633	  0.123352	  0.463541	  0.034137	  0.069566	  0.040631	  0.030047	  0.025799	  0.069960	  0.026938	  0.139114	  0.519498	  0.841011	  0.225593	
1.708	  0.081505	  0.078531	  0.353358	  0.121146	  0.461908	  0.033659	  0.071476	  0.041321	  0.030101	  0.025696	  0.068273	  0.026909	  0.140229	  0.519188	  0.844012	  0.226411	
1.7085	  0.082228	  0.078974	  0.355031	  0.118990	  0.460260	  0.033191	  0.073446	  0.042047	  0.030164	  0.025594	  0.066611	  0.026887	  0.141361	  0.518816	  0.846910	  0.227238	
1.709	  0.082976	  0.079409	  0.356648	  0.116885	  0.458599	  0.032735	  0.075476	  0.042812	  0.030238	  0.025494	  0.064974	  0.026874	  0.142509	  0.518383	  0.849705	  0.228074	
1.7095	  0.083750	  0.079836	  0.358208	  0.114830	  0.456924	  0.032290	  0.077568	  0.043614	  0.030323	  0.025394	  0.063361	  0.026868	  0.143673	  0.517890	  0.852394	  0.228920	
1.71	  0.084548	  0.080254	  0.359710	  0.112827	  0.455236	  0.031855	  0.079720	  0.044454	  0.030418	  0.025296	  0.061773	  0.026871	  0.144852	  0.517339	  0.854976	  0.229778	
1.7105	  0.085372	  0.080662	  0.361151	  0.110875	  0.453536	  0.031432	  0.081934	  0.045332	  0.030525	  0.025199	  0.060210	  0.026883	  0.146047	  0.516731	  0.857452	  0.230648	
1.711	  0.086221	  0.081061	  0.362530	  0.108975	  0.451825	  0.031019	  0.084209	  0.046250	  0.030643	  0.025103	  0.058672	  0.026903	  0.147256	  0.516067	  0.859820	  0.231532	
1.7115	  0.087095	  0.081450	  0.363845	  0.107128	  0.450102	  0.030618	  0.086547	  0.047206	  0.030772	  0.025009	  0.057159	  0.026931	  0.148480	  0.515347	  0.862081	  0.232429	
1.712	  0.087994	  0.081828	  0.365094	  0.105334	  0.448369	  0.030227	  0.088946	  0.048202	  0.030914	  0.024917	  0.055670	  0.026969	  0.149717	  0.514574	  0.864234	  0.233342	
1.7125	  0.088919	  0.082196	  0.366276	  0.103593	  0.446624	  0.029848	  0.091409	  0.049238	  0.031068	  0.024826	  0.054206	  0.027015	  0.150969	  0.513749	  0.866280	  0.234271	
1.713	  0.089869	  0.082553	  0.367389	  0.101905	  0.444869	  0.029480	  0.093934	  0.050314	  0.031235	  0.024736	  0.052766	  0.027071	  0.152233	  0.512872	  0.868218	  0.235218	
1.7135	  0.090844	  0.082899	  0.368432	  0.100270	  0.443104	  0.029124	  0.096523	  0.051430	  0.031414	  0.024648	  0.051350	  0.027136	  0.153511	  0.511945	  0.870050	  0.236184	
1.714	  0.091845	  0.083233	  0.369404	  0.098690	  0.441328	  0.028778	  0.099175	  0.052587	  0.031607	  0.024562	  0.049959	  0.027210	  0.154801	  0.510969	  0.871773	  0.237170	
1.7145	  0.092871	  0.083556	  0.370302	  0.097163	  0.439542	  0.028444	  0.101890	  0.053785	  0.031813	  0.024478	  0.048592	  0.027293	  0.156103	  0.509945	  0.873389	  0.238177	
1.715	  0.093922	  0.083867	  0.371127	  0.095691	  0.437745	  0.028121	  0.104668	  0.055024	  0.032033	  0.024395	  0.047250	  0.027386	  0.157417	  0.508874	  0.874896	  0.239206	
1.7155	  0.094998	  0.084166	  0.371877	  0.094273	  0.435939	  0.027809	  0.107510	  0.056303	  0.032266	  0.024314	  0.045931	  0.027489	  0.158743	  0.507757	  0.876294	  0.240259	
1.716	  0.096098	  0.084452	  0.372551	  0.092910	  0.434122	  0.027509	  0.110416	  0.057625	  0.032514	  0.024235	  0.044636	  0.027601	  0.160079	  0.506596	  0.877583	  0.241336	
